<?xml version="1.0" standalone="no"?>
<!DOCTYPE svg PUBLIC "-//W3C//DTD SVG 20010904//EN"
 "http://www.w3.org/TR/2001/REC-SVG-20010904/DTD/svg10.dtd">
<svg version="1.0" xmlns="http://www.w3.org/2000/svg"
 width="150.000000pt" height="150.000000pt" viewBox="0 0 150.000000 150.000000"
 preserveAspectRatio="xMidYMid meet">
<metadata>
Created by potrace 1.11, written by Peter Selinger 2001-2013
</metadata>
<g transform="translate(0.000000,150.000000) scale(0.100000,-0.100000)"
fill="#000000" stroke="none">
<path d="M1097 1489 c-97 -15 -161 -57 -244 -162 -92 -116 -175 -181 -293
-231 -74 -31 -89 -33 -146 -19 -139 34 -311 -43 -373 -166 -42 -82 -43 -161
-4 -260 28 -73 63 -119 123 -163 75 -54 154 -69 278 -54 61 8 67 6 138 -29 86
-42 185 -133 257 -236 67 -96 136 -142 241 -159 158 -26 333 70 372 205 23 76
23 92 8 170 -9 44 -50 110 -92 146 -43 38 -124 77 -173 83 -19 3 -34 5 -34 6
0 1 -16 3 -35 5 -19 1 -42 5 -50 9 -8 3 -26 8 -40 10 -14 3 -26 5 -27 7 -2 1
-6 2 -10 4 -5 1 -19 6 -33 12 -14 6 -30 12 -35 14 -31 12 -115 63 -115 70 0
23 188 107 260 115 44 5 158 22 188 29 34 6 111 53 147 89 73 74 101 191 69
293 -14 45 -31 71 -74 114 -81 82 -185 115 -303 98z m139 -110 c86 -23 149
-115 142 -206 -9 -108 -99 -187 -213 -187 -77 0 -94 4 -143 37 -152 100 -108
318 73 364 43 11 76 9 141 -8z m-800 -454 c145 -45 177 -176 71 -286 -105
-108 -317 -75 -367 55 -18 49 2 130 43 169 76 74 152 93 253 62z m759 -416
c116 -32 185 -147 152 -255 -15 -50 -70 -109 -119 -129 -157 -64 -333 42 -323
197 8 134 149 225 290 187z"/>
<path d="M1090 1282 c-69 -38 -69 -129 1 -171 79 -48 191 22 167 104 -21 74
-99 105 -168 67z"/>
<path d="M287 867 c-56 -32 -67 -75 -38 -151 36 -92 166 -100 208 -12 14 30
14 41 3 81 -13 47 -57 94 -88 96 -9 0 -24 2 -33 4 -9 1 -32 -6 -52 -18z"/>
<path d="M1054 386 c-23 -23 -34 -43 -34 -62 1 -87 101 -139 175 -90 24 16 53
62 50 81 -10 65 -55 105 -120 105 -29 0 -44 -7 -71 -34z"/>
</g>
</svg>
